<svg width="300" height="200" viewBox="0 0 300 200" xmlns="http://www.w3.org/2000/svg">
  <!-- Background -->
  <rect width="300" height="200" fill="#111" />
  
  <!-- Bricks -->
  <!-- Row 1 -->
  <rect x="30" y="20" width="40" height="15" fill="#f44336" rx="2" ry="2" />
  <rect x="75" y="20" width="40" height="15" fill="#f44336" rx="2" ry="2" />
  <rect x="120" y="20" width="40" height="15" fill="#f44336" rx="2" ry="2" />
  <rect x="165" y="20" width="40" height="15" fill="#f44336" rx="2" ry="2" />
  <rect x="210" y="20" width="40" height="15" fill="#f44336" rx="2" ry="2" />
  
  <!-- Row 2 -->
  <rect x="30" y="40" width="40" height="15" fill="#ff9800" rx="2" ry="2" />
  <rect x="75" y="40" width="40" height="15" fill="#ff9800" rx="2" ry="2" />
  <rect x="120" y="40" width="40" height="15" fill="#ff9800" rx="2" ry="2" />
  <rect x="165" y="40" width="40" height="15" fill="#ff9800" rx="2" ry="2" />
  <rect x="210" y="40" width="40" height="15" fill="#ff9800" rx="2" ry="2" />
  
  <!-- Row 3 -->
  <rect x="30" y="60" width="40" height="15" fill="#ffeb3b" rx="2" ry="2" />
  <rect x="75" y="60" width="40" height="15" fill="#ffeb3b" rx="2" ry="2" />
  <rect x="120" y="60" width="40" height="15" fill="#ffeb3b" rx="2" ry="2" />
  <rect x="165" y="60" width="40" height="15" fill="#ffeb3b" rx="2" ry="2" />
  <rect x="210" y="60" width="40" height="15" fill="#ffeb3b" rx="2" ry="2" />
  
  <!-- Row 4 -->
  <rect x="30" y="80" width="40" height="15" fill="#4caf50" rx="2" ry="2" />
  <rect x="75" y="80" width="40" height="15" fill="#4caf50" rx="2" ry="2" />
  <rect x="120" y="80" width="40" height="15" fill="#4caf50" rx="2" ry="2" />
  <rect x="165" y="80" width="40" height="15" fill="#4caf50" rx="2" ry="2" />
  <rect x="210" y="80" width="40" height="15" fill="#4caf50" rx="2" ry="2" />
  
  <!-- Paddle -->
  <rect x="110" y="170" width="80" height="10" fill="#fff" rx="5" ry="5" />
  
  <!-- Ball -->
  <circle cx="150" cy="130" r="8" fill="#fff" />
  
  <!-- Game Title -->
  <text x="150" y="150" font-family="Arial" font-size="24" font-weight="bold" fill="white" text-anchor="middle">BREAKOUT</text>
</svg>